HIERARCHY
ROOT Hips
{
	OFFSET -3.958830 18.904000 13.208200
	CHANNELS 6 Xposition Yposition Zposition Zrotation Yrotation Xrotation 
	JOINT LHipJoint
	{
		OFFSET 0.000000 0.000000 0.000000
		CHANNELS 3 Zrotation Yrotation Xrotation
		JOINT LeftUpLeg
		{
			OFFSET 1.800000 -1.400000 0.085000
			CHANNELS 3 Zrotation Yrotation Xrotation
			JOINT LeftLeg
			{
				OFFSET 2.215000 -6.000000 0.000000
				CHANNELS 3 Zrotation Yrotation Xrotation
				JOINT LeftFoot
				{
					OFFSET 2.500000 -6.900000 0.000000
					CHANNELS 3 Zrotation Yrotation Xrotation
					JOINT LeftToeBase
					{
						OFFSET 0.200000 -0.500000 1.950000
						CHANNELS 3 Zrotation Yrotation Xrotation
						End Site
						{
							OFFSET 0.000000 0.000000 0.000000
						}
					}
				}
			}
		}
	}
	JOINT RHipJoint
	{
		OFFSET 0.000000 0.000000 0.000000
		CHANNELS 3 Zrotation Yrotation Xrotation
		JOINT RightUpLeg
		{
			OFFSET -1.800000 -1.400000 0.085000
			CHANNELS 3 Zrotation Yrotation Xrotation
			JOINT RightLeg
			{
				OFFSET -2.215000 -6.000000 0.000000
				CHANNELS 3 Zrotation Yrotation Xrotation
				JOINT RightFoot
				{
					OFFSET -2.500000 -6.900000 0.000000
					CHANNELS 3 Zrotation Yrotation Xrotation
					JOINT RightToeBase
					{
						OFFSET -0.200000 -0.500000 1.950000
						CHANNELS 3 Zrotation Yrotation Xrotation
						End Site
						{
							OFFSET 0.000000 0.000000 0.000000
						}
					}
				}
			}
		}
	}
	JOINT LowerBack
	{
		OFFSET 0.000000 0.000000 0.000000
		CHANNELS 3 Zrotation Yrotation Xrotation
		JOINT Spine
		{
			OFFSET -0.087000 1.940000 -0.288900
			CHANNELS 3 Zrotation Yrotation Xrotation
			JOINT Spine1
			{
				OFFSET 0.000000 1.950000 0.060000
				CHANNELS 3 Zrotation Yrotation Xrotation
				JOINT Neck
				{
					OFFSET 0.000000 0.000000 0.000000
					CHANNELS 3 Zrotation Yrotation Xrotation
					JOINT Neck1
					{
						OFFSET 0.000000 1.600000 0.340000
						CHANNELS 3 Zrotation Yrotation Xrotation
						JOINT Head
						{
							OFFSET 0.000000 1.667000 -0.240000
							CHANNELS 3 Zrotation Yrotation Xrotation
							End Site
							{
								OFFSET 0.000000 0.000000 0.000000
							}
						}
					}
				}
				JOINT LeftShoulder
				{
					OFFSET 0.000000 0.000000 0.000000
					CHANNELS 3 Zrotation Yrotation Xrotation
					JOINT LeftArm
					{
						OFFSET 2.700000 1.550000 -0.730000
						CHANNELS 3 Zrotation Yrotation Xrotation
						JOINT LeftForeArm
						{
							OFFSET 5.450000 0.000000 0.000000
							CHANNELS 3 Zrotation Yrotation Xrotation
							JOINT LeftHand
							{
								OFFSET 3.450000 0.000000 0.000000
								CHANNELS 3 Zrotation Yrotation Xrotation
								JOINT LeftHandIndex1
								{
									OFFSET 0.750000 0.000000 0.000000
									CHANNELS 3 Zrotation Yrotation Xrotation
									End Site
									{
										OFFSET 0.000000 0.000000 0.000000
									}
								}
							}
						}
					}
				}
				JOINT RightShoulder
				{
					OFFSET 0.000000 0.000000 0.000000
					CHANNELS 3 Zrotation Yrotation Xrotation
					JOINT RightArm
					{
						OFFSET -2.700000 1.550000 -0.730000
						CHANNELS 3 Zrotation Yrotation Xrotation
						JOINT RightForeArm
						{
							OFFSET -5.450000 0.000000 0.000000
							CHANNELS 3 Zrotation Yrotation Xrotation
							JOINT RightHand
							{
								OFFSET -3.450000 0.000000 0.000000
								CHANNELS 3 Zrotation Yrotation Xrotation
								JOINT RightHandIndex1
								{
									OFFSET -0.750000 0.000000 0.000000
									CHANNELS 3 Zrotation Yrotation Xrotation
									End Site
									{
										OFFSET 0.000000 0.000000 0.000000
									}
								}
							}
						}
					}
				}
			}
		}
	}
}
MOTION
Frames: 14
Frame Time: 0.016667
-2.378050 18.104740 -3.783130 -3.027465 -12.576342 -16.484632 -15.286634 14.695389 2.954982 24.678556 1.696444 -3.058392 -4.758670 7.533753 13.403395 0.569115 5.579173 2.988699 0.255380 0.139680 -0.041410 17.844912 -10.931974 2.176765 -13.769086 -1.488354 -1.494561 5.220338 -6.360305 16.069135 -0.739062 -3.936406 3.355488 -0.356660 0.547880 0.139050 -2.456659 -4.696772 -7.421267 -14.109600 -6.051502 23.092809 -19.310448 2.754536 16.566000 3.829247 -12.732767 -20.537508 -41.471241 4.034589 39.826249 18.431650 -14.790650 -21.633990 16.286232 -24.127091 1.359650 9.230940 -38.374472 -5.715642 92.454350 -55.937015 -50.600188 -3.772907 1.764884 0.611200 -0.215300 0.309640 0.533830 -21.501057 39.106618 15.878066 -25.304142 -5.877832 -7.776489 -17.980917 -3.221047 0.258624 3.829360 -0.471334 0.069950 0.672070 -0.074840 0.358290 
-2.446150 18.143950 -3.805880 -2.733662 -13.241803 -17.303740 -15.520894 14.910710 2.956207 23.862256 1.976792 -1.600644 -5.060900 7.538674 12.628802 0.774527 5.518511 2.986104 0.413730 0.351430 -0.002650 17.670811 -10.599080 2.113957 -13.170268 -1.441827 -0.351453 5.983003 -6.521813 16.313485 -0.808332 -4.059293 3.302041 -0.315320 0.461260 0.240510 -1.881177 -5.505564 -7.352332 -16.856498 -5.507263 22.387624 -17.028035 4.208213 18.218335 3.042331 -12.513520 -20.078892 -40.950566 3.877943 40.575594 19.374200 -15.514720 -20.362290 16.667095 -24.789959 1.908887 9.063589 -36.160624 -6.726258 94.524290 -55.601678 -51.748905 -3.787352 2.009134 0.506580 -0.231120 0.378790 0.605770 -20.675345 40.369005 15.994465 -25.676974 -5.969207 -8.612929 -20.684052 -2.128059 -0.085512 3.943726 -0.875876 0.265400 0.499530 -0.198970 0.436500 
-2.541920 18.143160 -3.810880 -1.161254 -13.114614 -17.070372 -15.696358 15.281742 2.847619 21.678105 1.942001 -1.504681 -2.745499 6.752011 12.068899 0.600216 5.228463 3.104545 0.400200 0.310160 -0.026680 17.513775 -10.488266 1.930975 -13.937342 -1.458280 -0.961856 3.756470 -5.889009 16.434950 -0.729267 -3.864872 3.324121 -0.239870 0.449880 0.173960 -1.416121 -6.212613 -7.159406 -21.140722 -4.281512 19.959165 -12.980977 5.584176 18.614836 1.402078 -11.881965 -20.229805 -40.093687 4.976146 43.171603 23.225340 -16.372730 -18.105310 16.730738 -24.495566 2.852014 9.978706 -33.806839 -6.954321 94.758174 -52.144258 -49.462723 -3.747401 2.086144 0.600150 -0.244250 0.353000 0.604630 -17.611453 39.935461 16.549762 -26.868063 -5.416362 -7.848189 -20.154883 0.456461 -0.191978 3.587287 -1.021822 0.131900 0.506520 -0.211850 0.367980 
-2.635960 18.086160 -3.799580 -1.626816 -13.465422 -15.082078 -15.608121 15.129349 2.864467 21.798627 1.424003 -2.689880 -2.680378 6.577369 11.781837 0.408704 5.194583 3.086727 0.353680 0.228900 -0.027260 17.616405 -10.562152 1.905439 -12.647233 -1.344516 -3.105270 3.013249 -5.589002 17.135641 -0.653892 -3.638638 3.331094 -0.204810 0.497070 0.096530 -1.676574 -5.847484 -7.127777 -19.705104 -3.858660 18.093384 -11.967249 5.007224 18.627991 -0.167918 -10.776028 -20.785344 -39.601431 8.230255 47.038992 28.414810 -15.940030 -15.764870 18.144947 -22.742393 4.299190 8.595512 -28.952809 -6.220588 95.439999 -48.634453 -48.510254 -3.714740 2.120391 0.676510 -0.247550 0.293670 0.536930 -16.001063 35.613036 16.172229 -25.663308 -3.032515 -7.106614 -21.082910 1.852032 -0.309016 3.326586 -1.046716 0.000400 0.571150 -0.143390 0.299510 
-2.699820 18.050510 -3.846100 -3.016067 -15.224390 -15.453979 -15.546402 15.052787 2.877154 23.374092 1.357071 -1.668627 -1.945606 6.626411 11.925360 0.192769 5.533891 2.977027 0.281890 0.077420 0.008820 17.696887 -10.619512 1.902393 -10.212952 -1.092505 -3.408684 1.236184 -5.268365 19.193594 -0.619334 -3.611049 3.278864 -0.181250 0.542310 0.055620 -1.822982 -5.602864 -7.125860 -18.533513 -3.388415 20.723526 -11.173748 5.059980 19.477436 -0.680701 -11.252043 -19.523729 -38.946115 7.612332 44.273545 28.685490 -13.871340 -19.750160 18.065372 -19.897595 4.167529 9.419406 -24.918238 -7.552529 93.386790 -45.923457 -45.892135 -3.789831 2.125416 0.801740 -0.243000 0.223910 0.426400 -15.382760 32.070937 16.176047 -23.792700 -5.214471 -8.232710 -25.685587 4.718290 -1.068938 3.252275 -1.165781 -0.176930 0.676000 -0.016280 0.185120 
-2.753060 17.973850 -3.877200 -4.565343 -15.589608 -13.950791 -15.333816 14.848414 2.798339 24.236083 1.029504 -3.102233 -0.776141 6.451384 12.975391 0.110963 5.462369 3.048908 0.201400 0.030170 -0.066830 17.876286 -10.925753 2.012150 -8.107592 -0.775085 -5.571276 -0.187294 -4.934451 21.091990 -0.554332 -3.567108 3.358176 -0.168070 0.687890 -0.017920 -2.357932 -4.671145 -7.174728 -14.718243 -3.044507 21.547893 -11.341780 4.105558 18.173482 -1.259594 -10.982177 -19.213136 -38.425534 8.887761 45.225528 26.969220 -13.513890 -15.323660 16.516270 -18.528556 5.171669 9.322223 -20.080083 -6.941323 90.683200 -46.547574 -44.661575 -3.755075 2.038660 0.751620 -0.155250 0.151360 0.470510 -12.647605 28.839760 15.528896 -19.708163 -8.015632 -9.675388 -34.813920 12.982614 -3.578467 3.101675 -1.420910 -0.273900 0.820910 0.008430 0.217290 
-2.824360 17.869560 -3.920750 -5.925978 -14.785293 -13.373905 -15.097934 14.612624 2.705925 25.628640 0.669576 -4.430329 0.607019 6.266595 14.741538 0.145486 5.280715 3.066032 0.304890 0.177400 0.012740 18.071972 -11.253548 2.147951 -6.785211 -0.656762 -6.962797 -0.427146 -5.022842 22.660768 -0.625027 -3.616155 3.347977 -0.125870 0.593160 -0.014710 -2.993859 -3.609162 -7.247811 -11.530159 -3.570318 24.625382 -12.523237 2.406423 17.206415 -0.945522 -10.669097 -19.493844 -38.665848 10.963159 48.047017 25.796380 -12.037840 -14.215830 15.646988 -16.481197 6.804137 7.838663 -11.033087 -6.694105 94.066370 -47.550989 -48.238128 -3.579748 2.074992 0.745180 -0.192610 0.237140 0.518990 -12.251552 25.400783 14.485259 -12.226155 -12.836221 -12.278860 -48.134385 21.984386 -8.748984 3.084295 -1.658291 -0.204120 0.772670 -0.114250 0.229130 
-2.905780 17.733210 -3.932960 -6.839573 -11.343570 -11.801642 -15.115717 14.607453 2.695755 26.496944 0.211381 -8.518946 2.064851 5.933772 16.581765 0.381300 4.813063 3.167641 0.489100 0.593690 0.044280 18.064530 -11.225872 2.138004 -6.265854 -0.850993 -8.553440 0.223269 -5.259073 23.053600 -0.714687 -3.521810 3.520645 -0.017160 0.540010 -0.017570 -3.033622 -3.566249 -7.303925 -10.433740 -4.110388 25.520331 -11.627690 0.533484 16.043169 -0.363578 -9.251338 -19.900714 -38.066101 15.518685 53.194583 22.594960 -8.260570 -9.487460 13.333967 -15.098222 8.956653 5.118444 -3.354530 -5.997973 97.964965 -47.032754 -50.443253 -3.393710 2.149933 0.576550 -0.191730 0.444570 0.780800 -11.036739 21.984626 12.654506 -6.288966 -18.127870 -12.688567 -62.965213 30.044597 -16.416109 2.956768 -1.679843 -0.013030 0.792340 -0.412060 0.420460 
-2.987080 17.581280 -3.934800 -7.209559 -10.850689 -7.340560 -15.212413 14.490683 2.936858 27.448464 -0.397370 -13.320787 1.252810 6.269103 17.621474 0.344546 4.971537 3.083273 0.324660 0.350600 -0.048910 18.022580 -10.959917 2.134669 -4.745422 0.179879 -13.742173 -1.052418 -4.657048 23.936542 -0.537803 -3.202917 3.651855 -0.154640 0.698060 0.031550 -2.864104 -3.769579 -7.458174 -8.694422 -4.344982 22.405778 -10.832710 -0.791160 13.242187 0.987614 -8.244478 -20.737319 -38.094141 18.955788 57.527639 15.666620 -6.769650 3.161080 9.366623 -12.845281 10.980215 0.410061 4.677978 -3.281901 103.773091 -48.607343 -57.099667 -3.502742 2.041975 0.491950 -0.040020 0.324880 0.755420 -9.320953 18.876962 11.423263 -1.352695 -22.228544 -11.702333 -81.180104 34.660091 -26.673104 2.658251 -1.541150 -0.040460 0.806320 -0.268070 0.422120 
-3.054730 17.425180 -4.007420 -6.900043 -9.422008 -9.348217 -15.359076 14.663198 3.076671 29.064872 -0.581974 -13.308480 1.297848 6.568642 19.018187 0.387770 5.323060 2.939438 0.293480 0.273880 -0.008580 17.882790 -10.810646 1.997976 -5.622259 0.020284 -12.957758 -1.075178 -4.981215 25.513143 -0.554183 -3.422679 3.555336 -0.209680 0.664140 0.081010 -2.488559 -4.363457 -7.572665 -12.210554 -3.779339 29.806006 -6.628652 -1.964986 12.996559 1.311777 -8.608808 -19.089606 -36.042965 16.393254 55.330164 11.767470 -6.148710 2.092540 8.391870 -8.115746 11.460008 -9.208115 10.951445 -5.636265 107.374950 -44.562567 -59.632288 -3.571809 2.252801 0.481490 -0.027060 0.312460 0.689800 -9.092774 14.570267 9.444222 3.610564 -27.386200 -13.015743 -97.419349 31.879119 -35.914052 2.580793 -1.656091 -0.014480 0.749990 -0.228010 0.388780 
-3.104150 17.252290 -4.063510 -7.808346 -8.141241 -8.301491 -15.425894 14.418383 3.418088 31.364369 -0.886332 -15.176191 -0.571577 7.293462 19.364591 0.290359 5.957120 2.694880 0.114310 -0.065810 -0.095000 17.881155 -10.520243 2.018317 -5.463960 1.006502 -15.338776 0.619319 -6.032660 29.061519 -0.497568 -3.966678 3.290851 -0.350730 0.805010 0.247970 -2.457085 -4.507871 -7.865439 -10.136026 -3.814427 34.004167 -5.478713 -2.733141 9.778351 1.607699 -8.162277 -16.688298 -33.228646 14.667778 53.824122 4.557680 -4.230420 7.973440 4.991170 -2.977511 10.030420 -12.003951 11.989093 -3.741312 109.119540 -47.593574 -64.963503 -3.838136 2.196302 0.441130 0.161450 0.126470 0.543720 -6.568999 8.498975 6.803046 7.862960 -31.605228 -12.334825 -114.725853 28.788270 -46.179121 2.383391 -1.906459 -0.047410 0.636180 0.020620 0.310690 
-3.174110 17.053870 -4.132340 -7.340683 -7.163193 -8.913794 -15.394191 14.470839 3.416439 32.213363 -1.082294 -15.181601 1.457954 6.674287 19.098011 0.153176 5.915052 2.679465 0.159300 -0.141660 0.005180 17.886608 -10.597330 1.997322 -6.821566 1.411384 -16.706246 -0.270816 -6.145699 32.455041 -0.520758 -4.417790 3.028167 -0.324230 0.705640 0.301940 -2.532420 -4.462640 -7.935696 -10.405985 -3.271621 39.871092 -4.198274 -3.331441 5.971603 1.145883 -8.098261 -14.350179 -31.430466 12.846645 51.703142 2.512280 -3.847520 7.332780 3.563094 2.358220 8.177890 -13.872386 12.266969 -2.806030 107.278769 -52.520606 -67.989222 -3.804741 2.112820 0.507820 0.154150 0.078800 0.457490 -4.457522 2.821531 4.706645 11.982166 -31.676283 -12.180012 -125.903320 24.436250 -50.275727 2.303849 -2.216120 -0.084250 0.484430 0.025970 0.188440 
-3.226010 16.850360 -4.243550 -7.791892 -7.495074 -11.346462 -15.416037 14.462289 3.508735 34.460699 -0.727686 -13.490229 1.948839 6.844755 18.766513 0.468212 6.065457 2.666527 0.167770 -0.101500 0.059200 17.879999 -10.483113 2.021838 -6.942714 2.245765 -16.639248 -0.329317 -6.678659 37.032527 -0.688771 -5.037614 2.864464 -0.421460 0.639370 0.338820 -2.512689 -4.538683 -8.123042 -11.444983 -1.994882 49.636436 -2.024704 -3.036969 0.207554 2.000552 -8.042662 -12.969176 -29.063400 8.710271 49.024455 -2.439710 -3.844290 6.528220 2.818288 6.889071 7.111405 -17.073643 12.219815 -1.730020 114.339454 -56.396051 -81.248793 -3.809325 2.134071 0.408800 0.116510 0.171370 0.507450 -5.261560 -1.134204 4.283378 18.624112 -29.954116 -12.646515 -135.579160 20.765906 -54.254158 2.323084 -2.398556 0.060980 0.436050 -0.072940 0.274370 
-3.287160 16.635560 -4.317170 -7.564050 -7.147348 -10.244888 -15.488676 14.297451 3.601655 35.305896 -0.884007 -15.318674 1.629097 7.123640 19.793827 0.452275 6.224213 2.560499 0.091680 -0.234890 0.064520 17.874420 -10.146242 2.243579 -7.304484 3.884939 -20.589547 0.273654 -7.666747 42.603210 -0.808585 -5.845181 2.560129 -0.520070 0.627060 0.380180 -2.436862 -4.693034 -8.354686 -12.236961 -0.970737 52.868588 -0.862876 -2.322266 -3.829822 2.715153 -6.694112 -12.636904 -26.072558 7.950438 50.676456 -4.814490 -2.299520 9.218440 2.264793 8.552961 7.163154 -20.655074 11.188268 -0.723036 122.118692 -55.280885 -90.966084 -3.937024 2.347039 0.428590 0.138800 0.155920 0.431770 -5.799657 -3.708840 4.173860 27.137577 -28.122957 -13.288999 -146.124262 15.825265 -53.921764 2.166987 -2.564269 0.069390 0.377900 0.003650 0.232850 
